HIERARCHY
ROOT Hips
{
  OFFSET 5.72205e-005 65.662 3.42586
  CHANNELS 6 Xposition Yposition Zposition Zrotation Xrotation Yrotation
  JOINT Chest
  {
    OFFSET 0 8.7983 -4.7612
    CHANNELS 3 Zrotation Xrotation Yrotation
    JOINT Chest2
    {
      OFFSET 0 8.0291 0.4195
      CHANNELS 3 Zrotation Xrotation Yrotation
      JOINT Chest3
      {
        OFFSET 0 9.9351 -2.2114
        CHANNELS 3 Zrotation Xrotation Yrotation
        JOINT Neck
        {
          OFFSET 0 22.3885 -0.4656
          CHANNELS 3 Zrotation Xrotation Yrotation
          JOINT Head
          {
            OFFSET -0.0001 12.643 3.4389
            CHANNELS 3 Zrotation Xrotation Yrotation
            End Site
            {
              OFFSET 0.0001 17.6655 0.5274
            }
          }
        }
        JOINT LeftCollar
        {
          OFFSET 2.2603 21.606 7.4023
          CHANNELS 3 Zrotation Xrotation Yrotation
          JOINT LeftShoulder
          {
            OFFSET 13.5163 -1.1332 -5.0146
            CHANNELS 3 Zrotation Xrotation Yrotation
            JOINT LeftElbow
            {
              OFFSET -0.0995 -28.05 -0.2431
              CHANNELS 3 Zrotation Xrotation Yrotation
              JOINT LeftWrist
              {
                OFFSET 0.0679 -23.3996 -0.1402
                CHANNELS 3 Zrotation Xrotation Yrotation
                JOINT LeftFinger1
                {
                  OFFSET 0.7932 -9.069 2.5189
                  CHANNELS 3 Zrotation Xrotation Yrotation
                  JOINT LeftFinger11
                  {
                    OFFSET -0.8272 -3.3923 0.5977
                    CHANNELS 3 Zrotation Xrotation Yrotation
                    JOINT LeftFinger12
                    {
                      OFFSET -0.5649 -2.3158 0.4082
                      CHANNELS 3 Zrotation Xrotation Yrotation
                      End Site
                      {
                        OFFSET -0.4919 -1.6479 0.2673
                      }
                    }
                  }
                }
                JOINT LeftFinger2
                {
                  OFFSET 0.9159 -9.2044 0.2193
                  CHANNELS 3 Zrotation Xrotation Yrotation
                  JOINT LeftFinger21
                  {
                    OFFSET 0.0117 -4.1944 -0.0248
                    CHANNELS 3 Zrotation Xrotation Yrotation
                    JOINT LeftFinger22
                    {
                      OFFSET 0.0071 -2.3249 -0.0142
                      CHANNELS 3 Zrotation Xrotation Yrotation
                      End Site
                      {
                        OFFSET -0.1475 -2.0882 0.0028
                      }
                    }
                  }
                }
                JOINT LeftFinger3
                {
                  OFFSET 0.6113 -8.7231 -2.0637
                  CHANNELS 3 Zrotation Xrotation Yrotation
                  JOINT LeftFinger31
                  {
                    OFFSET -0.1927 -3.8059 -0.2383
                    CHANNELS 3 Zrotation Xrotation Yrotation
                    JOINT LeftFinger32
                    {
                      OFFSET -0.1091 -2.1688 -0.1362
                      CHANNELS 3 Zrotation Xrotation Yrotation
                      End Site
                      {
                        OFFSET -0.2358 -1.9176 -0.0906
                      }
                    }
                  }
                }
                JOINT LeftFinger4
                {
                  OFFSET -0.6151 -8.0947 -3.5641
                  CHANNELS 3 Zrotation Xrotation Yrotation
                  JOINT LeftFinger41
                  {
                    OFFSET -0.4882 -2.341 -0.6462
                    CHANNELS 3 Zrotation Xrotation Yrotation
                    JOINT LeftFinger42
                    {
                      OFFSET -0.3575 -1.7167 -0.4742
                      CHANNELS 3 Zrotation Xrotation Yrotation
                      End Site
                      {
                        OFFSET -0.4187 -1.5237 -0.3496
                      }
                    }
                  }
                }
                JOINT LeftFinger0
                {
                  OFFSET -1.42 -1.8761 1.4223
                  CHANNELS 3 Zrotation Xrotation Yrotation
                  JOINT LeftFinger01
                  {
                    OFFSET -1.1471 -3.4929 2.6334
                    CHANNELS 3 Zrotation Xrotation Yrotation
                    JOINT LeftFinger02
                    {
                      OFFSET -0.823 -2.3 1.6571
                      CHANNELS 3 Zrotation Xrotation Yrotation
                      End Site
                      {
                        OFFSET -0.5822 -1.6914 1.1582
                      }
                    }
                  }
                }
              }
            }
          }
        }
        JOINT RightCollar
        {
          OFFSET -2.2603 21.606 7.4023
          CHANNELS 3 Zrotation Xrotation Yrotation
          JOINT RightShoulder
          {
            OFFSET -13.5187 -1.1334 -5.0155
            CHANNELS 3 Zrotation Xrotation Yrotation
            JOINT RightElbow
            {
              OFFSET 0.0994 -28.0499 -0.2431
              CHANNELS 3 Zrotation Xrotation Yrotation
              JOINT RightWrist
              {
                OFFSET -0.0679 -23.3996 -0.1402
                CHANNELS 3 Zrotation Xrotation Yrotation
                JOINT RightFinger1
                {
                  OFFSET -0.7932 -9.0691 2.5189
                  CHANNELS 3 Zrotation Xrotation Yrotation
                  JOINT RightFinger11
                  {
                    OFFSET 0.8272 -3.3923 0.5977
                    CHANNELS 3 Zrotation Xrotation Yrotation
                    JOINT RightFinger12
                    {
                      OFFSET 0.565 -2.3158 0.4082
                      CHANNELS 3 Zrotation Xrotation Yrotation
                      End Site
                      {
                        OFFSET 0.4919 -1.6479 0.2673
                      }
                    }
                  }
                }
                JOINT RightFinger2
                {
                  OFFSET -0.916 -9.2044 0.2193
                  CHANNELS 3 Zrotation Xrotation Yrotation
                  JOINT RightFinger21
                  {
                    OFFSET -0.0117 -4.1944 -0.0248
                    CHANNELS 3 Zrotation Xrotation Yrotation
                    JOINT RightFinger22
                    {
                      OFFSET -0.0071 -2.3249 -0.0142
                      CHANNELS 3 Zrotation Xrotation Yrotation
                      End Site
                      {
                        OFFSET 0.1475 -2.0882 0.0028
                      }
                    }
                  }
                }
                JOINT RightFinger3
                {
                  OFFSET -0.6113 -8.7231 -2.0637
                  CHANNELS 3 Zrotation Xrotation Yrotation
                  JOINT RightFinger31
                  {
                    OFFSET 0.1927 -3.8059 -0.2383
                    CHANNELS 3 Zrotation Xrotation Yrotation
                    JOINT RightFinger32
                    {
                      OFFSET 0.1091 -2.1688 -0.1362
                      CHANNELS 3 Zrotation Xrotation Yrotation
                      End Site
                      {
                        OFFSET 0.2358 -1.9176 -0.0906
                      }
                    }
                  }
                }
                JOINT RightFinger4
                {
                  OFFSET 0.6151 -8.0947 -3.564
                  CHANNELS 3 Zrotation Xrotation Yrotation
                  JOINT RightFinger41
                  {
                    OFFSET 0.4882 -2.341 -0.6462
                    CHANNELS 3 Zrotation Xrotation Yrotation
                    JOINT RightFinger42
                    {
                      OFFSET 0.3574 -1.7166 -0.4742
                      CHANNELS 3 Zrotation Xrotation Yrotation
                      End Site
                      {
                        OFFSET 0.4187 -1.5237 -0.3496
                      }
                    }
                  }
                }
                JOINT RightFinger0
                {
                  OFFSET 1.4199 -1.8761 1.4221
                  CHANNELS 3 Zrotation Xrotation Yrotation
                  JOINT RightFinger01
                  {
                    OFFSET 1.1472 -3.4929 2.6336
                    CHANNELS 3 Zrotation Xrotation Yrotation
                    JOINT RightFinger02
                    {
                      OFFSET 0.8229 -2.3 1.6571
                      CHANNELS 3 Zrotation Xrotation Yrotation
                      End Site
                      {
                        OFFSET 0.5822 -1.6914 1.1582
                      }
                    }
                  }
                }
              }
            }
          }
        }
      }
    }
  }
  JOINT RightHip
  {
    OFFSET -9.412 3.9771 -0.7758
    CHANNELS 3 Zrotation Xrotation Yrotation
    JOINT RightKnee
    {
      OFFSET -0.7531 -40.938 0
      CHANNELS 3 Zrotation Xrotation Yrotation
      JOINT RightAnkle
      {
        OFFSET 0 -40.1986 0
        CHANNELS 3 Zrotation Xrotation Yrotation
        JOINT RightToe
        {
          OFFSET 0 -4.4182 9.239
          CHANNELS 3 Zrotation Xrotation Yrotation
          End Site
          {
            OFFSET 0 0 6.1981
          }
        }
      }
    }
  }
  JOINT LeftHip
  {
    OFFSET 9.4119 3.9773 -0.7758
    CHANNELS 3 Zrotation Xrotation Yrotation
    JOINT LeftKnee
    {
      OFFSET 0.7532 -40.9383 0
      CHANNELS 3 Zrotation Xrotation Yrotation
      JOINT LeftAnkle
      {
        OFFSET 0 -40.1986 0
        CHANNELS 3 Zrotation Xrotation Yrotation
        JOINT LeftToe
        {
          OFFSET 0 -4.4182 9.239
          CHANNELS 3 Zrotation Xrotation Yrotation
          End Site
          {
            OFFSET 0 0 6.1981
          }
        }
      }
    }
  }
}
MOTION
Frames:	7
Frame Time:	0.0333333
20.211 43.0701 -34.7684 -0.00254254 17.9983 5.99931 -5.74005 14.7957 4.71944 -13.4493 28.95 11.5909 -13.4492 28.9499 11.5908 -0.00194161 -17.0021 -16.0016 -15.0752 -30.1213 -25.7002 9.80658 -26.5392 -60.345 79.9657 -6.96305 14.1063 -20.4682 -58.1755 7.50525 -49.7299 7.84041 43.5099 -4.27387e-015 1.59028e-015 -0 -9.93923e-016 4.77083e-015 -7.95139e-016 -4.07509e-015 0 -0 -4.27387e-015 1.59028e-015 -0 -0.0128147 0.00232266 8.30989e-005 -4.67144e-015 1.59028e-015 2.38542e-015 -4.27387e-015 1.59028e-015 -0 -0.0160524 0.00299189 0.000854054 -2.08724e-015 0 -7.95139e-016 -4.27387e-015 1.59028e-015 -0 -0.0126055 0.00311895 0.00282319 -1.32964e-005 3.18622e-006 -2.09481e-006 -4.27387e-015 1.59028e-015 -0 -9.93923e-016 4.77083e-015 -7.95139e-016 -4.07509e-015 0 -0 -12.8113 -3.06359 -8.48808 -106.823 -39.8501 -63.0092 -13.0035 -57.8911 -1.67817 9.78483 7.93055 -1.17207 -9.54166e-015 3.18055e-015 1.27222e-014 -1.59028e-014 -3.18055e-015 1.27222e-014 -1.27222e-014 3.18055e-015 6.36111e-015 -9.54166e-015 3.18055e-015 1.27222e-014 0.0129277 0.00232427 -9.25581e-005 -6.36111e-015 1.59028e-014 6.36111e-015 -9.54166e-015 3.18055e-015 1.27222e-014 0.0163305 0.00303867 -0.000862157 3.18055e-015 3.18055e-015 -0 -9.54166e-015 3.18055e-015 1.27222e-014 0.0146085 0.00369229 -0.00326101 -9.54166e-015 -6.36111e-015 6.36111e-015 -9.54166e-015 3.18055e-015 1.27222e-014 -1.59028e-014 -3.18055e-015 1.27222e-014 -1.27222e-014 3.18055e-015 6.36111e-015 -30.8031 -50.8652 -35.8314 -175.955 31.2149 172.71 4.55426 38.2227 -8.77721 -2.09138e-007 -4.59376e-009 -3.69473e-007 43.1775 -44.6048 45.4421 176.257 30.5577 -173.051 5.05384 43.6405 9.95562 -1.17509e-006 1.56436e-006 1.42061e-006 
20.211 43.0701 -34.7684 -0.00254506 17.9983 5.99932 -5.74179 14.7288 4.70048 -13.4337 28.8195 11.537 -13.4336 28.8193 11.5369 -0.00195488 -17.002 -16.0016 -15.0752 -30.1213 -25.7002 9.74144 -26.1634 -60.676 79.9656 -6.96308 14.1063 -19.6884 -57.3353 8.20853 -50.0136 7.57104 43.118 8.27647e-008 -3.9421e-008 -4.17558e-007 2.48294e-007 -2.47346e-006 -1.25267e-006 1.70955e-014 0 1.59028e-015 8.27647e-008 -3.9421e-008 -4.17558e-007 -0.0128039 0.00232302 8.69521e-005 8.27887e-008 -8.14382e-007 -4.17554e-007 8.27647e-008 -3.9421e-008 -4.17558e-007 -0.0160348 0.00299069 0.000859491 -1.00843e-005 2.02275e-006 -1.59977e-007 8.27647e-008 -3.9421e-008 -4.17558e-007 -0.0125855 0.00312428 0.00283054 -7.64523e-006 -5.32333e-007 -3.37141e-006 8.27647e-008 -3.9421e-008 -4.17558e-007 2.48294e-007 -2.47346e-006 -1.25267e-006 1.70955e-014 0 1.59028e-015 -12.42 -2.8852 -8.0503 -106.266 -39.8586 -62.6927 -14.1786 -57.7833 -2.60829 9.62644 7.58116 -1.08499 -6.36111e-015 -1.27222e-014 -3.18055e-015 -9.54166e-015 -1.27222e-014 -6.36111e-015 -9.54166e-015 -1.27222e-014 -6.36111e-015 -6.36111e-015 -1.27222e-014 -3.18055e-015 0.0129577 0.00231458 -7.02899e-005 -3.18055e-015 3.18055e-015 -3.18055e-015 -6.36111e-015 -1.27222e-014 -3.18055e-015 0.0163442 0.00302776 -0.00087311 -6.36111e-015 0 6.36111e-015 -6.36111e-015 -1.27222e-014 -3.18055e-015 0.014531 0.00366582 -0.00324119 1.76556e-031 3.18055e-015 -3.18055e-015 -6.36111e-015 -1.27222e-014 -3.18055e-015 -9.54166e-015 -1.27222e-014 -6.36111e-015 -9.54166e-015 -1.27222e-014 -6.36111e-015 -30.8032 -50.8651 -35.8315 -175.954 31.215 172.71 4.55428 38.2228 -8.77721 -2.02997e-006 1.15154e-006 -2.57415e-007 43.1757 -44.6063 45.4408 176.259 30.5576 -173.051 5.05385 43.6405 9.9556 -7.79984e-007 1.95704e-006 2.1515e-006 
20.211 43.0701 -34.7684 -0.00254098 17.9983 5.99931 -5.74351 14.6618 4.6815 -13.4181 28.6888 11.4832 -13.418 28.6887 11.4831 -0.00194728 -17.002 -16.0016 -15.0752 -30.1213 -25.7002 9.67889 -25.7872 -61.0056 79.9657 -6.96305 14.1063 -18.9442 -56.4895 8.87586 -50.299 7.30357 42.725 -8.94531e-016 0 7.95139e-016 -1.65415e-007 -4.97631e-007 8.35209e-007 2.78299e-015 -3.18055e-015 2.38542e-015 -8.94531e-016 0 7.95139e-016 -0.0127912 0.00231943 8.69872e-005 -1.01017e-005 3.65282e-007 -1.49427e-007 -8.94531e-016 0 7.95139e-016 -0.0160655 0.00299844 0.000860735 -7.05686e-015 -3.18055e-015 7.95139e-016 -8.94531e-016 0 7.95139e-016 -0.0126017 0.00312589 0.00282692 -1.42131e-014 -4.77083e-015 -1.59028e-015 -8.94531e-016 0 7.95139e-016 -1.65415e-007 -4.97631e-007 8.35209e-007 2.78299e-015 -3.18055e-015 2.38542e-015 -12.0299 -2.70377 -7.61365 -105.708 -39.8646 -62.3758 -15.3472 -57.6656 -3.5317 9.46865 7.2315 -0.998878 -3.18055e-015 6.36111e-015 -3.18055e-015 -3.18055e-015 -6.36111e-015 -0 3.18055e-015 -9.54166e-015 9.54166e-015 -3.18055e-015 6.36111e-015 -3.18055e-015 0.0129388 0.00230727 -9.64552e-005 3.18055e-015 0 -3.18055e-015 -3.18055e-015 6.36111e-015 -3.18055e-015 0.0163353 0.00303647 -0.00087654 -5.06196e-006 -7.51023e-006 7.82909e-007 -3.18055e-015 6.36111e-015 -3.18055e-015 0.0145733 0.00367683 -0.00327471 -0 -3.18055e-015 -0 -3.18055e-015 6.36111e-015 -3.18055e-015 -3.18055e-015 -6.36111e-015 -0 3.18055e-015 -9.54166e-015 9.54166e-015 -30.803 -50.8652 -35.8313 -175.955 31.2149 172.71 4.55426 38.2228 -8.77722 -1.82083e-006 -3.71955e-008 1.12057e-007 43.1779 -44.6046 45.4423 176.256 30.5577 -173.051 5.05383 43.6405 9.95562 2.56897e-007 1.64313e-008 7.918e-007 
20.211 43.0701 -34.7684 -0.00254114 17.9983 5.99931 -5.74522 14.5948 4.66252 -13.4027 28.5582 11.4294 -13.4026 28.5581 11.4293 -0.00195041 -17.002 -16.0016 -15.0752 -30.1212 -25.7002 9.61893 -25.4106 -61.3337 79.9656 -6.96311 14.1063 -18.2328 -55.6384 9.50978 -50.5861 7.03811 42.3308 -3.18055e-015 -3.18055e-015 -1.59028e-015 9.70396e-006 -1.27449e-006 2.22728e-006 -1.19271e-015 0 -7.95139e-016 -3.18055e-015 -3.18055e-015 -1.59028e-015 -0.0128168 0.00232755 8.68782e-005 3.53162e-006 -1.08884e-006 2.64252e-007 -3.18055e-015 -3.18055e-015 -1.59028e-015 -0.0160292 0.00299291 0.000859988 3.47873e-015 -4.77083e-015 -1.59028e-015 -3.18055e-015 -3.18055e-015 -1.59028e-015 -0.0125705 0.00312077 0.00283202 4.96962e-015 0 7.95139e-016 -3.18055e-015 -3.18055e-015 -1.59028e-015 9.70396e-006 -1.27449e-006 2.22728e-006 -1.19271e-015 0 -7.95139e-016 -11.6412 -2.5193 -7.1781 -105.151 -39.8684 -62.0591 -16.5085 -57.5375 -4.44755 9.31147 6.8815 -0.913809 -0 0 3.18055e-015 3.18055e-015 0 -6.36111e-015 3.53113e-031 -6.36111e-015 3.18055e-015 -0 0 3.18055e-015 0.0129403 0.00231463 -9.00715e-005 6.36111e-015 3.18055e-015 -6.36111e-015 -0 0 3.18055e-015 0.0163121 0.00303008 -0.000881862 6.36111e-015 3.18055e-015 -0 -0 0 3.18055e-015 0.014588 0.00367857 -0.00327418 -1.27222e-014 2.8625e-014 -0 -0 0 3.18055e-015 3.18055e-015 0 -6.36111e-015 3.53113e-031 -6.36111e-015 3.18055e-015 -30.803 -50.8651 -35.8313 -175.955 31.2149 172.71 4.55425 38.2227 -8.77721 -1.61169e-006 -3.26018e-008 4.8153e-007 43.1779 -44.6046 45.4423 176.256 30.5576 -173.051 5.05384 43.6405 9.95562 -1.43199e-006 2.90301e-006 6.28807e-007 
20.211 43.0701 -34.7684 -0.00253547 17.9983 5.99931 -5.7469 14.5278 4.64353 -13.3873 28.4275 11.3757 -13.3872 28.4274 11.3756 -0.00196095 -17.002 -16.0015 -15.0752 -30.1213 -25.7003 9.56151 -25.0335 -61.6605 79.9657 -6.96307 14.1063 -17.5525 -54.7821 10.1125 -50.8752 6.77423 41.9351 1.84401e-006 2.32486e-006 -2.83722e-007 -5.44937e-006 -2.91466e-006 4.33481e-007 -1.98785e-015 -3.18055e-015 -1.59028e-015 1.84401e-006 2.32486e-006 -2.83722e-007 -0.0128447 0.002327 8.50118e-005 -8.26783e-008 1.62277e-006 4.17681e-007 1.84401e-006 2.32486e-006 -2.83722e-007 -0.0160677 0.00299657 0.000858955 3.30739e-007 5.95791e-008 -1.67072e-006 1.84401e-006 2.32486e-006 -2.83722e-007 -0.0125957 0.00312072 0.00282815 3.52141e-006 1.40455e-006 2.68405e-007 1.84401e-006 2.32486e-006 -2.83722e-007 -5.44937e-006 -2.91466e-006 4.33481e-007 -1.98785e-015 -3.18055e-015 -1.59028e-015 -11.2538 -2.3318 -6.74376 -104.593 -39.8697 -61.742 -17.6622 -57.3998 -5.3556 9.15492 6.53125 -0.829738 3.18055e-015 0 3.18055e-015 -3.33552e-006 -4.87373e-006 -7.19241e-006 -1.27222e-014 0 9.54166e-015 3.18055e-015 0 3.18055e-015 0.0129338 0.0023135 -8.89932e-005 -8.56009e-006 -3.79042e-006 4.35394e-006 3.18055e-015 0 3.18055e-015 0.0163084 0.00302791 -0.000874398 -3.18055e-015 0 -6.36111e-015 3.18055e-015 0 3.18055e-015 0.0145536 0.0036671 -0.00325889 3.18055e-015 -9.54166e-015 6.36111e-015 3.18055e-015 0 3.18055e-015 -3.33552e-006 -4.87373e-006 -7.19241e-006 -1.27222e-014 0 9.54166e-015 -30.8028 -50.8652 -35.8311 -175.955 31.2149 172.71 4.55427 38.2228 -8.7772 -1.82083e-006 -4.17893e-008 1.12057e-007 43.1775 -44.6048 45.442 176.257 30.5577 -173.051 5.05388 43.6405 9.95559 -6.16367e-006 3.02358e-008 -2.72282e-006 
20.211 43.0701 -34.7684 -0.00254058 17.9983 5.99931 -5.74857 14.4609 4.62454 -13.372 28.2969 11.3221 -13.3719 28.2967 11.3221 -0.00194658 -17.002 -16.0015 -15.0752 -30.1213 -25.7002 9.50663 -24.6562 -61.986 79.9657 -6.96302 14.1063 -16.9013 -53.9216 10.6855 -51.1658 6.51255 41.5385 -4.96962e-016 0 7.95139e-016 -1.65318e-007 -1.67562e-006 8.35433e-007 2.38542e-015 -1.59028e-015 3.18055e-015 -4.96962e-016 0 7.95139e-016 -0.0128284 0.00232482 8.56452e-005 4.47266e-015 -1.59028e-015 1.59028e-015 -4.96962e-016 0 7.95139e-016 -0.0160511 0.00299246 0.000855226 -5.36719e-015 1.59028e-015 7.95139e-016 -4.96962e-016 0 7.95139e-016 -0.0125959 0.00311899 0.00282558 -7.85199e-015 -6.36111e-015 3.18055e-015 -4.96962e-016 0 7.95139e-016 -1.65318e-007 -1.67562e-006 8.35433e-007 2.38542e-015 -1.59028e-015 3.18055e-015 -10.8677 -2.14137 -6.31065 -104.035 -39.8687 -61.425 -18.8075 -57.252 -6.25497 8.99895 6.1807 -0.746703 -5.07084e-006 1.85581e-006 7.21331e-007 6.36111e-015 0 -6.36111e-015 6.36111e-015 3.18055e-015 -1.27222e-014 -5.07084e-006 1.85581e-006 7.21331e-007 0.012963 0.00232424 -9.01941e-005 6.36111e-015 0 -3.18055e-015 -5.07084e-006 1.85581e-006 7.21331e-007 0.0163058 0.00302747 -0.000868305 1.59028e-014 -3.18055e-015 -6.36111e-015 -5.07084e-006 1.85581e-006 7.21331e-007 0.0145589 0.00366726 -0.00325908 -3.18055e-015 0 -6.36111e-015 -5.07084e-006 1.85581e-006 7.21331e-007 6.36111e-015 0 -6.36111e-015 6.36111e-015 3.18055e-015 -1.27222e-014 -30.8029 -50.8652 -35.8313 -175.955 31.215 172.71 4.55427 38.2228 -8.77723 -1.61169e-006 1.16992e-006 4.81531e-007 43.1778 -44.6047 45.4423 176.256 30.5577 -173.051 5.05384 43.6405 9.95564 0 0 -0 
20.211 43.0701 -34.7684 -0.00253756 17.9983 5.99931 -5.75022 14.3938 4.60554 -13.3568 28.1662 11.2686 -13.3567 28.166 11.2685 -0.00195793 -17.002 -16.0015 -15.0752 -30.1213 -25.7003 9.45426 -24.2785 -62.3101 79.9657 -6.96307 14.1063 -16.2769 -53.0569 11.2312 -51.4582 6.2527 41.1406 9.24349e-015 1.59028e-015 -7.95139e-016 1.2921e-014 3.18055e-015 -1.59028e-015 -1.66847e-006 2.34578e-006 -5.55728e-007 9.24349e-015 1.59028e-015 -7.95139e-016 -0.0128299 0.00232594 8.4561e-005 3.83181e-006 3.55133e-006 -1.39485e-006 9.24349e-015 1.59028e-015 -7.95139e-016 -0.0160486 0.00299894 0.000858941 -1.15927e-005 3.09635e-006 -1.92232e-006 9.24349e-015 1.59028e-015 -7.95139e-016 -0.0125842 0.0031253 0.00282209 -1.91593e-006 9.92782e-007 6.97259e-007 9.24349e-015 1.59028e-015 -7.95139e-016 1.2921e-014 3.18055e-015 -1.59028e-015 -1.66847e-006 2.34578e-006 -5.55728e-007 -10.4831 -1.94798 -5.87877 -103.477 -39.8652 -61.1079 -19.944 -57.0948 -7.1453 8.84357 5.82993 -0.664682 -6.36111e-015 0 9.54166e-015 1.27222e-014 -3.18055e-015 6.36111e-015 9.54166e-015 -6.36111e-015 3.18055e-015 -6.36111e-015 0 9.54166e-015 0.0129558 0.00231403 -8.47541e-005 6.36111e-015 0 -0 -6.36111e-015 0 9.54166e-015 0.016353 0.00303633 -0.000874689 -9.54166e-015 -3.18055e-015 -6.36111e-015 -6.36111e-015 0 9.54166e-015 0.0145483 0.00367205 -0.00324958 0 6.36111e-015 -0 -6.36111e-015 0 9.54166e-015 1.27222e-014 -3.18055e-015 6.36111e-015 9.54166e-015 -6.36111e-015 3.18055e-015 -30.8032 -50.8651 -35.8315 -175.954 31.215 172.71 4.55427 38.2228 -8.77722 -2.80511e-006 -4.68284e-008 1.70201e-006 43.1778 -44.6047 45.4423 176.256 30.5577 -173.051 5.05387 43.6405 9.95563 -1.43199e-006 -1.27029e-007 6.28808e-007 
